#!OML:ASF H:\Dans Jumps\Project 1\Capture day 1\Session 1\subject.ASF
:FULLY-SPECIFIED
:DEGREES
112
root 0.405277 17.6679 -13.8022 6.58835 -0.904131 -1.07917
lowerback -2.81893 -0.657201 -0.397314
upperback 3.58572 -0.92844 1.47804
thorax 5.32199 -0.50861 1.68558
lowerneck -14.9872 0.0691607 -2.67304
upperneck 21.5973 -0.174276 3.92295
head 9.27143 0.131448 1.77605
rclavicle -2.11209e-014 1.33186e-014
rhumerus -22.8252 -13.8264 -81.2696
rradius 24.329
rwrist 32.817
rhand -18.703 -26.6215
rfingers 7.12502
rthumb 7.59181 -56.4652
lclavicle -2.11209e-014 1.33186e-014
lhumerus -19.2132 -6.24912 89.4382
lradius 23.0447
lwrist 5.72983
lhand -25.6119 -2.96973
lfingers 7.12502
lthumb 0.920573 27.008
rfemur -11.6047 -4.24479 18.9869
rtibia 19.665
rfoot -13.1294 -5.86229
rtoes 13.8481
lfemur -8.97635 7.20413 -18.3277
ltibia 15.0764
lfoot -9.49238 7.42818
ltoes 5.19869
113
root 0.405913 17.6662 -13.8194 6.63939 -0.919278 -1.09263
lowerback -2.66007 -0.651365 -0.388277
upperback 3.6493 -0.921547 1.48582
thorax 5.29756 -0.505283 1.69045
lowerneck -15.0053 0.0799953 -2.65222
upperneck 22.008 -0.158823 3.85728
head 9.4174 0.133466 1.75783
rclavicle -4.32357e-015 1.94809e-014
rhumerus -22.7812 -13.8637 -81.2144
rradius 24.2846
rwrist 32.8143
rhand -18.7091 -26.6386
rfingers 7.12502
rthumb 7.58595 -56.4825
lclavicle -4.32357e-015 1.94809e-014
lhumerus -19.1339 -6.18648 89.2808
lradius 23.0466
lwrist 5.78515
lhand -25.6886 -2.97903
lfingers 7.12502
lthumb 0.846511 26.999
rfemur -11.8126 -4.26078 19.0101
rtibia 19.82
rfoot -13.1227 -5.83333
rtoes 13.8122
lfemur -9.23138 7.2001 -18.3311
ltibia 15.3356
lfoot -9.53428 7.46793
ltoes 5.17629
114
root 0.406856 17.6641 -13.8378 6.69245 -0.927485 -1.10333
lowerback -2.48993 -0.64789 -0.378448
upperback 3.71812 -0.917814 1.49332
thorax 5.2723 -0.503509 1.69444
lowerneck -15.0289 0.0903204 -2.62865
upperneck 22.4134 -0.142385 3.78478
head 9.5634 0.13527 1.73682
rclavicle 9.88954e-015 -2.04748e-014
rhumerus -22.7315 -13.9027 -81.1581
rradius 24.2484
rwrist 32.8169
rhand -18.7041 -26.6513
rfingers 7.12502
rthumb 7.59074 -56.4951
lclavicle 9.88954e-015 -2.04748e-014
lhumerus -19.0504 -6.11601 89.1263
lradius 23.0422
lwrist 5.81414
lhand -25.7598 -2.98548
lfingers 7.12502
lthumb 0.777703 26.9929
rfemur -12.0385 -4.28285 19.0304
rtibia 19.998
rfoot -13.1211 -5.80602
rtoes 13.7803
lfemur -9.50782 7.19817 -18.3391
ltibia 15.6203
lfoot -9.58166 7.50032
ltoes 5.13902
115
root 0.408091 17.6615 -13.8574 6.74661 -0.933389 -1.11546
lowerback -2.30498 -0.644918 -0.364692
upperback 3.79244 -0.914961 1.50212
thorax 5.24432 -0.502065 1.69762
lowerneck -15.0443 0.0998616 -2.61305
upperneck 22.7988 -0.125172 3.71625
head 9.70162 0.136943 1.71825
rclavicle -1.54058e-015 -1.98785e-015
rhumerus -22.6764 -13.9466 -81.0993
rradius 24.2207
rwrist 32.8283
rhand -18.6993 -26.6551
rfingers 7.12502
rthumb 7.59544 -56.4987
lclavicle -1.54058e-015 -1.98785e-015
lhumerus -18.9644 -6.03053 88.9754
lradius 23.0326
lwrist 5.80681
lhand -25.8104 -2.98307
lfingers 7.12502
lthumb 0.728893 26.9954
rfemur -12.2826 -4.30641 19.052
rtibia 20.1995
rfoot -13.1238 -5.78057
rtoes 13.7507
lfemur -9.8055 7.20095 -18.3472
ltibia 15.9324
lfoot -9.63537 7.52665
ltoes 5.08728
116
root 0.409608 17.6584 -13.8782 6.8007 -0.937403 -1.12992
lowerback -2.10348 -0.641684 -0.345799
upperback 3.87254 -0.911968 1.5118
thorax 5.21289 -0.500382 1.69899
lowerneck -15.055 0.111432 -2.59066
upperneck 23.1605 -0.104096 3.64045
head 9.83123 0.139949 1.69604
rclavicle 9.49197e-015 -4.17448e-015
rhumerus -22.6195 -13.9919 -81.0392
rradius 24.2034
rwrist 32.8432
rhand -18.7022 -26.6545
rfingers 7.12502
rthumb 7.59257 -56.4982
lclavicle 9.49197e-015 -4.17448e-015
lhumerus -18.8762 -5.93836 88.8293
lradius 23.0267
lwrist 5.79706
lhand -25.8393 -2.97407
lfingers 7.12502
lthumb 0.700947 27.0045
rfemur -12.5434 -4.33323 19.076
rtibia 20.4234
rfoot -13.1309 -5.75467
rtoes 13.7177
lfemur -10.1238 7.20451 -18.3539
ltibia 16.2736
lfoot -9.69626 7.55082
ltoes 5.02867
117
root 0.41122 17.6548 -13.9004 6.85563 -0.941485 -1.14805
lowerback -1.88399 -0.637198 -0.324232
upperback 3.96012 -0.907418 1.52333
thorax 5.17896 -0.497891 1.70103
lowerneck -15.0611 0.124072 -2.5641
upperneck 23.4905 -0.08036 3.5602
head 9.94926 0.143854 1.67133
rclavicle -1.98785e-015 -7.55382e-015
rhumerus -22.5584 -14.028 -80.9816
rradius 24.2016
rwrist 32.8402
rhand -18.7155 -26.6502
rfingers 7.12502
rthumb 7.57975 -56.4944
lclavicle -1.98785e-015 -7.55382e-015
lhumerus -18.7829 -5.83847 88.6876
lradius 23.022
lwrist 5.77644
lhand -25.8541 -2.99094
lfingers 7.12502
lthumb 0.686673 26.9877
rfemur -12.8214 -4.35408 19.1041
rtibia 20.6673
rfoot -13.1406 -5.73503
rtoes 13.687
lfemur -10.4649 7.20839 -18.3574
ltibia 16.6449
lfoot -9.76227 7.57524
ltoes 4.96424
